<svg xmlns="http://www.w3.org/2000/svg" xmlns:xlink="http://www.w3.org/1999/xlink" width="200" zoomAndPan="magnify" viewBox="0 0 150 149.999998" height="200" preserveAspectRatio="xMidYMid meet" version="1.0"><path fill="#fd4e02" d="M 72.5 107.5 L 27.5 107.5 C 26.121094 107.5 25 108.621094 25 110 C 25 111.378906 26.121094 112.5 27.5 112.5 L 72.5 112.5 C 73.878906 112.5 75 111.378906 75 110 C 75 108.621094 73.878906 107.5 72.5 107.5 " fill-opacity="1" fill-rule="nonzero"/><path fill="#fd4e02" d="M 7.5 140 L 5 140 C 3.421875 140 2.023438 140.753906 1.109375 141.902344 C 0.503906 142.664062 0.113281 143.601562 0.0351562 144.625 C 0.0273438 144.757812 0 144.871094 0 145 C 0 145.765625 0.191406 146.484375 0.496094 147.125 C 1.300781 148.820312 3.011719 150 5 150 L 87.5 150 L 87.5 140 L 7.5 140 " fill-opacity="1" fill-rule="nonzero"/><path fill="#fd4e02" d="M 5 22.5 C 2.238281 22.5 0 24.738281 0 27.5 L 0 136.355469 C 1.476562 135.496094 3.175781 135 5 135 L 5 22.5 " fill-opacity="1" fill-rule="nonzero"/><path fill="#fd4e02" d="M 80 47.5 L 80 82.5 L 20 82.5 L 20 37.5 L 80 37.5 Z M 72.5 117.5 L 27.5 117.5 C 23.367188 117.5 20 114.132812 20 110 C 20 105.859375 23.367188 102.5 27.5 102.5 L 72.5 102.5 C 76.640625 102.5 80 105.859375 80 110 C 80 114.132812 76.640625 117.5 72.5 117.5 Z M 57.5 127.5 L 42.5 127.5 L 42.5 122.5 L 57.5 122.5 Z M 85 44.339844 L 85 22.5 L 10 22.5 L 10 135 L 90 135 L 90 53.699219 C 86.945312 51.945312 85 48.53125 85 44.339844 " fill-opacity="1" fill-rule="nonzero"/><path fill="#fd4e02" d="M 142.5 17.5 L 117.5 17.5 L 117.5 12.5 L 142.5 12.5 Z M 142.5 27.5 L 115 27.5 L 115 22.5 L 142.5 22.5 Z M 142.5 42.5 L 137.5 42.5 L 137.5 35 L 142.5 35 Z M 132.5 42.5 L 127.5 42.5 L 127.5 35 L 132.5 35 Z M 120 37.5 L 100 37.5 L 100 32.5 L 120 32.5 Z M 97.5 7.5 L 102.5 7.5 L 102.5 15 L 97.5 15 Z M 110 22.5 L 110 27.5 L 100 27.5 L 100 22.5 Z M 107.5 7.5 L 112.5 7.5 L 112.5 15 L 107.5 15 Z M 144.035156 0 L 95.972656 0 C 92.683594 0 90 2.570312 90 5.738281 L 90 44.339844 C 90 46.242188 90.703125 48.367188 92.5 49.382812 C 93.175781 49.765625 93.992188 50 95 50 L 127.5 50 L 127.5 55.582031 L 136.8125 50 L 145.007812 50 C 148.6875 50 150.007812 46.953125 150.007812 44.339844 L 150.007812 5.738281 C 150.007812 2.570312 147.328125 0 144.035156 0 " fill-opacity="1" fill-rule="nonzero"/><path fill="#fd4e02" d="M 75 42.5 L 25 42.5 L 25 47.5 L 75 47.5 L 75 42.5 " fill-opacity="1" fill-rule="nonzero"/><path fill="#fd4e02" d="M 125.0625 90.050781 C 122.925781 91.457031 119.695312 91.449219 117.5625 90.050781 L 115.597656 88.757812 C 115.128906 88.453125 114.070312 88.453125 113.59375 88.757812 L 109.539062 91.421875 L 106.796875 87.238281 L 110.851562 84.582031 C 112.984375 83.175781 116.207031 83.175781 118.34375 84.582031 L 120.3125 85.867188 C 120.78125 86.179688 121.847656 86.179688 122.308594 85.875 L 126.371094 83.203125 L 129.113281 87.386719 Z M 127.5 117.5 C 127.5 118.621094 126.761719 119.59375 125.695312 119.90625 C 125.46875 119.964844 125.234375 120 125 120 C 124.15625 120 123.351562 119.566406 122.882812 118.828125 L 115 106.214844 L 115 120 L 110 120 L 110 97.5 C 110 96.378906 110.746094 95.40625 111.8125 95.09375 C 112.882812 94.792969 114.035156 95.226562 114.625 96.171875 L 122.5 108.785156 L 122.5 95 L 127.5 95 Z M 142.5 77.5 L 114.3125 77.5 L 105 71.917969 L 105 77.5 L 95 77.5 L 95 127.5 L 141.535156 127.5 C 144.828125 127.5 147.5 124.921875 147.5 121.761719 L 147.5 83.152344 C 147.5 80.546875 146.1875 77.5 142.5 77.5 " fill-opacity="1" fill-rule="nonzero"/><path fill="#fd4e02" d="M 75 72.5 L 25 72.5 L 25 77.5 L 75 77.5 L 75 72.5 " fill-opacity="1" fill-rule="nonzero"/><path fill="#fd4e02" d="M 42.5 62.5 L 32.5 62.5 L 32.5 57.5 L 42.5 57.5 Z M 75 52.5 L 25 52.5 L 25 67.5 L 75 67.5 L 75 52.5 " fill-opacity="1" fill-rule="nonzero"/></svg>